<?xml version="1.0" standalone="no"?>
<!DOCTYPE svg PUBLIC "-//W3C//DTD SVG 20010904//EN"
 "http://www.w3.org/TR/2001/REC-SVG-20010904/DTD/svg10.dtd">
<svg version="1.0" xmlns="http://www.w3.org/2000/svg"
 width="200.000000pt" height="200.000000pt" viewBox="0 0 200.000000 200.000000"
 preserveAspectRatio="xMidYMid meet">
<metadata>
Created by potrace 1.14, written by Peter Selinger 2001-2017
</metadata>
<g transform="translate(0.000000,200.000000) scale(0.100000,-0.100000)"
fill="#000000" stroke="none">
<path d="M9 1613 c-1 -5 -2 -49 -3 -100 l-1 -92 105 0 c105 -1 120 -2 215 -21
61 -13 147 -46 196 -76 226 -140 230 -438 9 -613 -111 -88 -247 -129 -435
-132 l-85 -1 0 -100 0 -101 133 6 c161 7 257 30 384 93 291 144 432 450 337
733 -21 63 -96 173 -152 221 -100 88 -246 150 -412 176 -100 15 -289 19 -291
7z"/>
<path d="M1190 1522 l0 -101 88 0 c229 -1 417 -70 487 -181 57 -90 13 -168
-108 -189 -35 -6 -89 -11 -120 -11 l-57 0 0 -101 0 -100 83 2 c205 5 338 73
403 205 24 48 26 63 22 132 -6 100 -46 180 -130 257 -120 112 -297 172 -530
182 l-138 6 0 -101z"/>
<path d="M1190 731 c0 -238 3 -310 13 -313 6 -2 50 -3 97 -3 l85 1 3 312 2
312 -100 0 -100 0 0 -309z"/>
</g>
</svg>
